<svg width="34" height="34" viewBox="0 0 34 34" fill="none" xmlns="http://www.w3.org/2000/svg">
<path d="M1 16.6981C1 13.3636 3.70319 10.6604 7.03774 10.6604V10.6604V22.1321C7.03774 25.4666 4.33455 28.1698 1 28.1698V28.1698V16.6981Z" fill="#FF0000" stroke="white"/>
<path d="M15.4906 21.5283C15.4906 18.1938 18.1938 15.4906 21.5283 15.4906V15.4906V26.9623C21.5283 30.2968 18.8251 33 15.4906 33V33V21.5283Z" fill="#FF0000" stroke="white"/>
<path d="M7.03772 11.2641C7.03772 8.26305 9.47059 5.83019 12.4717 5.83019V5.83019V17.9057C12.4717 20.9068 10.0388 23.3396 7.03772 23.3396V23.3396V11.2641Z" fill="#FF0000" stroke="white"/>
<path d="M21.5283 16.6981C21.5283 13.3636 24.2315 10.6604 27.5661 10.6604V10.6604V22.1321C27.5661 25.4666 24.8629 28.1698 21.5283 28.1698V28.1698V16.6981Z" fill="#FF0000" stroke="white"/>
<path d="M12.4717 7.03773C12.4717 3.70318 15.1749 1 18.5094 1V1V12.4717C18.5094 15.8062 15.8062 18.5094 12.4717 18.5094V18.5094V7.03773Z" fill="#FF0000" stroke="white"/>
<path d="M27.566 11.2641C27.566 8.26305 29.9989 5.83019 33 5.83019V5.83019V17.9057C33 20.9068 30.5671 23.3396 27.566 23.3396V23.3396V11.2641Z" fill="#FF0000" stroke="white"/>
<circle cx="24" cy="7" r="2" fill="#FF0000"/>
<circle cx="10" cy="27" r="2" fill="#FF0000"/>
</svg>
